# xmcd
#
# Track frame offsets:
# 150
# 4186
# 20115
# 40217
# 57016
# 76632
# 92369
# 110988
# 126106
# 142398
# 159824
# 182079
# 202061
# 217480
# 237283
# 256833
# 277303
# 293076
# 309619
#
# Disc length: 4394 seconds
#
# Revision: 1
# Processed by: cddbd v1.5.1PL0 Copyright (c) Steve Scherf et al.
# Submitted via: Easy CD Ripper v2.23
#
DISCID=1d112813
DTITLE=dj boozywoozy - booze it up!
DYEAR=2002
DGENRE=Club House
TTITLE0=the boozy show (intro) - dj boozywoozy
TTITLE1=jumpin' around (feat. pryme) - dj boozywoozy
TTITLE2=close youe eyes (feat. joyce) - dj boozywoozy
TTITLE3=booze it up! - dj boozywoozy
TTITLE4=get up throw your hands up (feat. pryme) - dj boozywoozy
TTITLE5=one more try - dj boozywoozy
TTITLE6=everybody dance! (feat. pryme) - dj boozywoozy
TTITLE7=party affair - dj boozywoozy
TTITLE8=escapades - dj boozywoozy
TTITLE9=are you ready? - dj boozywoozy
TTITLE10=pizzi's revenge - dj boozywoozy
TTITLE11=328 ways to do Angelina - dj boozywoozy
TTITLE12=330 ways to do laetitia - dj boozywoozy
TTITLE13=the boozy shuffle - dj boozywoozy
TTITLE14=ain't nothing going on but a fuckin' track - dj boozywoozy
TTITLE15=groove with me - dj boozywoozy
TTITLE16=party affair (rocco remix) - dj boozywoozy
TTITLE17=party affair (live version feat. mc hughie babe - dj boozywoozy
TTITLE18=jumpin' around (feat. pryme)(live version) - dj boozywoozy
EXTD=
EXTT0=
EXTT1=
EXTT2=
EXTT3=
EXTT4=
EXTT5=
EXTT6=
EXTT7=
EXTT8=
EXTT9=
EXTT10=
EXTT11=
EXTT12=
EXTT13=
EXTT14=
EXTT15=
EXTT16=
EXTT17=
EXTT18=
PLAYORDER=
